<svg width="45" height="44" viewBox="0 0 45 44" fill="none" xmlns="http://www.w3.org/2000/svg">
<rect x="0.5" width="44" height="44" rx="22" fill="#ECECFE"/>
<path d="M31.4996 13C30.9466 13 30.4996 13.448 30.4996 14V16.0081C28.6466 13.5351 25.7027 12 22.4997 12C17.3886 12 13.1176 15.8231 12.5646 20.8921C12.5046 21.4411 12.9016 21.9341 13.4506 21.9951C13.4876 21.9991 13.5237 22.001 13.5597 22.001C14.0637 22.001 14.4976 21.6219 14.5526 21.1089C14.9936 17.0559 18.4097 14.001 22.4987 14.001C25.3857 14.001 28.0016 15.566 29.4086 18.001H26.4997C25.9466 18.001 25.4997 18.449 25.4997 19.001C25.4997 19.553 25.9466 20.001 26.4997 20.001H31.4996C32.0526 20.001 32.4996 19.553 32.4996 19.001V14.001C32.4996 13.448 32.0526 13 31.4996 13Z" fill="#000091"/>
<path opacity="0.4" d="M31.5491 22.0058C30.9881 21.9468 30.506 22.3428 30.446 22.8918C30.005 26.9448 26.589 29.9997 22.5 29.9997C19.613 29.9997 16.9971 28.4347 15.5901 25.9997H18.5C19.053 25.9997 19.5 25.5517 19.5 24.9997C19.5 24.4477 19.053 23.9997 18.5 23.9997H13.5C12.947 23.9997 12.5 24.4477 12.5 24.9997V29.9997C12.5 30.5517 12.947 30.9997 13.5 30.9997C14.053 30.9997 14.5 30.5517 14.5 29.9997V27.9917C16.353 30.4647 19.297 31.9997 22.5 31.9997C27.611 31.9997 31.8821 28.1766 32.4351 23.1076C32.4941 22.5586 32.0981 22.0658 31.5491 22.0058Z" fill="#000091"/>
</svg>
