<svg xmlns="http://www.w3.org/2000/svg" fill="none" width="55" height="69" viewBox="0 0 55 69"><g clip-path="url(#a)"><path d="M43.01 22.466c1.21-2.208 3.41-4.581 7.15-6.844 1.045-.608 1.705-1.712 1.705-2.87 0-2.374-2.42-4.03-4.62-3.037-6.38 2.815-16.995 9.826-16.995 24.343 0 6.514 5.225 11.758 11.715 11.758s11.66-5.244 11.66-11.702c0-6.128-4.675-11.096-10.615-11.648zm-28.93 0c1.21-2.208 3.41-4.581 7.15-6.844 1.045-.608 1.705-1.712 1.705-2.87 0-2.374-2.42-4.03-4.62-3.037-6.325 2.815-16.94 9.826-16.94 24.343 0 6.514 5.225 11.758 11.66 11.758 6.435 0 11.715-5.244 11.715-11.758 0-6.072-4.675-11.04-10.67-11.592z" fill="#F0F0F0"/></g><defs><clipPath id="a"><path d="M0 0h55v69H0z" fill="#fff"/></clipPath></defs></svg>