<svg width="147" height="147" viewBox="0 0 147 147" fill="none" xmlns="http://www.w3.org/2000/svg">
<mask id="path-1-inside-1_10132_41348" fill="white">
<path fill-rule="evenodd" clip-rule="evenodd" d="M73.5 147C114.093 147 147 114.093 147 73.5C147 32.9071 114.093 0 73.5 0C32.9071 0 0 32.9071 0 73.5C0 114.093 32.9071 147 73.5 147ZM73.5 121C99.7335 121 121 99.7335 121 73.5C121 47.2665 99.7335 26 73.5 26C47.2665 26 26 47.2665 26 73.5C26 99.7335 47.2665 121 73.5 121Z"/>
</mask>
<path fill-rule="evenodd" clip-rule="evenodd" d="M73.5 147C114.093 147 147 114.093 147 73.5C147 32.9071 114.093 0 73.5 0C32.9071 0 0 32.9071 0 73.5C0 114.093 32.9071 147 73.5 147ZM73.5 121C99.7335 121 121 99.7335 121 73.5C121 47.2665 99.7335 26 73.5 26C47.2665 26 26 47.2665 26 73.5C26 99.7335 47.2665 121 73.5 121Z" fill="white"/>
<path d="M146 73.5C146 113.541 113.541 146 73.5 146V148C114.645 148 148 114.645 148 73.5H146ZM73.5 1C113.541 1 146 33.4594 146 73.5H148C148 32.3548 114.645 -1 73.5 -1V1ZM1 73.5C1 33.4594 33.4594 1 73.5 1V-1C32.3548 -1 -1 32.3548 -1 73.5H1ZM73.5 146C33.4594 146 1 113.541 1 73.5H-1C-1 114.645 32.3548 148 73.5 148V146ZM120 73.5C120 99.1812 99.1812 120 73.5 120V122C100.286 122 122 100.286 122 73.5H120ZM73.5 27C99.1812 27 120 47.8188 120 73.5H122C122 46.7142 100.286 25 73.5 25V27ZM27 73.5C27 47.8188 47.8188 27 73.5 27V25C46.7142 25 25 46.7142 25 73.5H27ZM73.5 120C47.8188 120 27 99.1812 27 73.5H25C25 100.286 46.7142 122 73.5 122V120Z" fill="#000091" mask="url(#path-1-inside-1_10132_41348)"/>
<path d="M69.818 128.08L68.4507 138.903L65.5124 138.532L66.5806 130.076L62.2049 129.524L62.504 127.156L69.818 128.08Z" fill="#000091"/>
<path d="M56.3047 125.547L52.2888 135.69L44.9787 132.796L45.8572 130.577L50.4136 132.381L51.1039 130.638L46.9238 128.983L47.8023 126.764L51.9824 128.419L52.6726 126.676L48.136 124.88L49.0144 122.661L56.3047 125.547Z" fill="#000091"/>
<path d="M26.167 119.674L23.8174 116.834L26.9622 110.941L26.8807 110.843L20.5036 112.828L18.154 109.988L26.5596 103.034L28.4067 105.267L23.5472 109.287L23.6015 109.353L29.9436 107.258L31.0573 108.605L27.7789 114.469L27.8332 114.535L32.7256 110.487L34.5726 112.72L26.167 119.674Z" fill="#000091"/>
<path d="M16.1752 93.9894C17.2741 93.4723 18.3016 93.2498 19.2578 93.3218C20.2108 93.3954 21.0525 93.7037 21.783 94.247C22.5103 94.7917 23.0841 95.5107 23.5045 96.404C23.9278 97.3036 24.116 98.2081 24.0689 99.1172C24.0171 100.025 23.7158 100.869 23.165 101.65C22.6095 102.43 21.7855 103.076 20.693 103.59C19.5941 104.107 18.5689 104.331 17.6175 104.261C16.6613 104.188 15.8203 103.882 15.0945 103.34C14.364 102.797 13.7871 102.076 13.3637 101.176C12.9434 100.283 12.7568 99.3814 12.8038 98.4723C12.8477 97.5646 13.1466 96.7195 13.7006 95.9368C14.2514 95.1557 15.0763 94.5065 16.1752 93.9894ZM17.4725 96.7463C16.8812 97.0245 16.4203 97.3376 16.0895 97.6856C15.754 98.0318 15.5536 98.4067 15.4884 98.8103C15.4185 99.2121 15.4878 99.6347 15.6965 100.078C15.9051 100.522 16.1873 100.846 16.543 101.051C16.894 101.255 17.3106 101.34 17.7928 101.305C18.2702 101.269 18.8045 101.112 19.3957 100.833C19.987 100.555 20.4503 100.243 20.7858 99.8968C21.1166 99.5488 21.3169 99.1739 21.3869 98.7721C21.4521 98.3686 21.3804 97.9451 21.1717 97.5017C20.9631 97.0583 20.6832 96.7347 20.3323 96.5309C19.9766 96.3255 19.56 96.2409 19.0825 96.2771C18.6004 96.3117 18.0637 96.4681 17.4725 96.7463Z" fill="#000091"/>
<path d="M8.11165 83.9333L18.8275 81.8891L19.3825 84.7983L8.6666 86.8424L8.11165 83.9333Z" fill="#000091"/>
<path d="M10.8533 67.5191C10.4971 67.5252 10.2123 67.6407 9.99885 67.8657C9.78566 68.0871 9.66402 68.4371 9.63391 68.9155C9.61474 69.2203 9.63623 69.4725 9.69839 69.6721C9.75724 69.868 9.84578 70.0159 9.96403 70.1158C10.0823 70.2158 10.221 70.2725 10.3803 70.2861C10.511 70.3014 10.6312 70.2859 10.7408 70.2394C10.8472 70.1892 10.9467 70.1065 11.0393 69.9913C11.1284 69.8759 11.2125 69.7265 11.2917 69.5429C11.3708 69.3593 11.4451 69.1398 11.5146 68.8844L11.7622 68.0033C11.9276 67.4088 12.1284 66.9038 12.3645 66.4881C12.6006 66.0724 12.869 65.737 13.1697 65.482C13.4669 65.2267 13.7949 65.0463 14.1538 64.9408C14.5129 64.8317 14.8999 64.7884 15.3148 64.811C16.0305 64.8596 16.6253 65.0767 17.0991 65.4623C17.573 65.8479 17.9186 66.3785 18.1358 67.054C18.3533 67.7259 18.433 68.5226 18.3751 69.4441C18.3155 70.3904 18.1236 71.2074 17.7992 71.895C17.4751 72.5792 17.0101 73.0979 16.4044 73.4511C15.7953 73.8007 15.0352 73.9485 14.1242 73.8948L14.3008 71.0878C14.635 71.0911 14.9202 71.0254 15.1564 70.8908C15.3926 70.7562 15.5777 70.5579 15.7116 70.2959C15.8457 70.0304 15.9246 69.7098 15.9482 69.3341C15.9681 69.0187 15.9457 68.7522 15.8811 68.5346C15.8165 68.3171 15.7186 68.149 15.5872 68.0305C15.4559 67.9119 15.3018 67.8453 15.1248 67.8306C14.958 67.8237 14.8092 67.8694 14.6785 67.968C14.5445 68.0627 14.4203 68.2257 14.3062 68.4569C14.1884 68.6879 14.0726 69.0026 13.9585 69.4011L13.6564 70.4709C13.3867 71.4217 12.9897 72.16 12.4656 72.6856C11.9382 73.2075 11.2493 73.4399 10.3989 73.3829C9.70762 73.3429 9.11494 73.1206 8.62091 72.7159C8.12356 72.3075 7.75042 71.7627 7.5015 71.0817C7.2528 70.3971 7.15555 69.6242 7.20973 68.763C7.26503 67.884 7.45994 67.1331 7.79446 66.5101C8.12898 65.8871 8.57475 65.4188 9.13177 65.1052C9.68546 64.7877 10.3186 64.6497 11.0312 64.6909L10.8533 67.5191Z" fill="#000091"/>
<path d="M24.6486 46.7703L22.8496 45.6286L22.1878 40.3887C22.1435 40.0409 22.0903 39.7338 22.0282 39.4672C21.9649 39.1958 21.8724 38.9604 21.7507 38.7612C21.6309 38.559 21.463 38.3894 21.2472 38.2524C21.0103 38.1021 20.7756 38.0246 20.543 38.02C20.3123 38.0124 20.0958 38.0685 19.8936 38.1883C19.6884 38.3062 19.5125 38.4806 19.366 38.7115C19.2195 38.9423 19.1366 39.1757 19.1172 39.4116C19.0998 39.6445 19.1506 39.866 19.2696 40.0761C19.3886 40.2862 19.5771 40.4731 19.8349 40.6367L18.3279 43.0114C17.6803 42.6004 17.2149 42.1011 16.9317 41.5134C16.6486 40.9257 16.5494 40.2866 16.6344 39.5961C16.7193 38.9055 16.9882 38.2035 17.4411 37.4899C17.9092 36.7523 18.4329 36.1888 19.0123 35.7994C19.5905 35.4051 20.1858 35.1962 20.798 35.1725C21.4122 35.1459 22.0056 35.3143 22.5783 35.6777C22.9321 35.9023 23.2377 36.1993 23.4953 36.5689C23.7499 36.9365 23.9677 37.4449 24.1488 38.0939C24.3299 38.743 24.4902 39.6039 24.6296 40.6765L24.8012 41.9967L24.8552 42.031L27.1385 38.433L29.1354 39.7002L24.6486 46.7703Z" fill="#E1000F"/>
<path d="M35.6946 33.1358C34.97 33.8114 34.1893 34.2303 33.3527 34.3925C32.516 34.5546 31.6624 34.4574 30.7918 34.1009C29.9212 33.7445 29.0775 33.1288 28.2609 32.254C27.4418 31.3766 26.8866 30.5 26.595 29.6241C26.3061 28.7458 26.2736 27.9019 26.4975 27.0924C26.724 26.2805 27.1983 25.5355 27.9206 24.8572C28.6428 24.179 29.4174 23.7537 30.2443 23.5812C31.0688 23.4061 31.9103 23.4903 32.7688 23.8339C33.6272 24.1774 34.4647 24.7866 35.2814 25.6614C36.1055 26.5389 36.668 27.4233 36.9691 28.3146C37.2702 29.2059 37.3136 30.0639 37.0993 30.8888C36.8851 31.7086 36.4169 32.4576 35.6946 33.1358ZM34.0465 31.3807C34.4193 31.0306 34.5424 30.5496 34.4159 29.9377C34.2896 29.3207 33.8325 28.5954 33.0448 27.7617C32.5318 27.2155 32.0581 26.82 31.6237 26.5752C31.1892 26.3304 30.7984 26.2151 30.4513 26.2293C30.1017 26.241 29.8027 26.3635 29.5541 26.5968C29.1814 26.9469 29.0547 27.4215 29.174 28.0206C29.2934 28.6198 29.7345 29.3308 30.4975 30.1537C31.0176 30.7127 31.5009 31.1211 31.9475 31.3788C32.3917 31.6339 32.7898 31.757 33.1418 31.7479C33.4964 31.7365 33.798 31.6141 34.0465 31.3807Z" fill="#E1000F"/>
<path d="M43.3019 26.6472L42.2754 24.78L44.2198 19.8694C44.3486 19.5434 44.4499 19.2486 44.5238 18.985C44.5992 18.7167 44.6315 18.4659 44.6208 18.2327C44.6133 17.9978 44.5479 17.7683 44.4247 17.5442C44.2896 17.2984 44.1212 17.1174 43.9196 17.0013C43.7211 16.8835 43.5044 16.8284 43.2694 16.836C43.0328 16.8404 42.7947 16.9085 42.5551 17.0402C42.3154 17.172 42.1304 17.3365 41.9998 17.5339C41.8723 17.7296 41.8101 17.9482 41.8132 18.1897C41.8163 18.4311 41.8914 18.6857 42.0385 18.9533L39.5739 20.3082C39.2044 19.6361 39.0371 18.9743 39.072 18.3229C39.107 17.6715 39.3281 17.0637 39.7352 16.4995C40.1423 15.9353 40.7161 15.4496 41.4567 15.0424C42.2223 14.6216 42.9527 14.3801 43.648 14.318C44.3447 14.2511 44.9669 14.3547 45.5148 14.629C46.0658 14.9015 46.5047 15.3349 46.8315 15.9293C47.0334 16.2965 47.1581 16.7041 47.2058 17.152C47.2518 17.5968 47.1978 18.1472 47.0438 18.8032C46.8898 19.4593 46.6155 20.2909 46.2209 21.298L45.7353 22.5376L45.7661 22.5936L49.5003 20.5407L50.6397 22.6132L43.3019 26.6472Z" fill="#E1000F"/>
<path d="M59.44 19.8919C58.6076 20.1056 57.8315 20.1527 57.1115 20.0333C56.3942 19.9095 55.7865 19.6421 55.2887 19.2309C54.7908 18.8198 54.4558 18.2862 54.2837 17.6301L57.173 16.8883C57.2285 17.0904 57.3372 17.2568 57.4991 17.3875C57.6636 17.5139 57.8639 17.5945 58.1001 17.6292C58.3363 17.6638 58.592 17.6459 58.8672 17.5752C59.132 17.5072 59.354 17.4007 59.5331 17.2557C59.7113 17.1073 59.8355 16.9343 59.9057 16.7366C59.976 16.5389 59.9816 16.3322 59.9225 16.1164C59.8712 15.9022 59.7572 15.7298 59.5807 15.5992C59.4076 15.4676 59.1905 15.3859 58.9293 15.354C58.6681 15.322 58.3828 15.3458 58.0732 15.4253L57.0001 15.7008L56.4914 13.7196L57.5645 13.4441C57.85 13.3708 58.0892 13.2599 58.282 13.1114C58.4783 12.962 58.6154 12.7893 58.6934 12.5933C58.7749 12.3964 58.7865 12.1918 58.7283 11.9794C58.6788 11.7721 58.5821 11.6026 58.4383 11.4709C58.2945 11.3392 58.1182 11.2525 57.9095 11.2107C57.7042 11.1681 57.4812 11.1777 57.2405 11.2395C56.979 11.3066 56.7571 11.4131 56.5745 11.559C56.3955 11.7039 56.2686 11.874 56.1941 12.0691C56.1195 12.2643 56.1079 12.4689 56.1592 12.683L53.4144 13.3878C53.2519 12.7402 53.2824 12.1238 53.5061 11.5384C53.7332 10.9521 54.1183 10.439 54.6616 9.99883C55.2049 9.5587 55.8755 9.2362 56.6735 9.03131C57.4543 8.83084 58.1779 8.78619 58.8444 8.89738C59.5143 9.00768 60.0774 9.25172 60.5337 9.62952C60.9926 10.003 61.2967 10.4877 61.446 11.0836C61.6048 11.6735 61.5264 12.2105 61.2108 12.6949C60.8986 13.1783 60.4367 13.5352 59.8249 13.7656L59.8461 13.8482C60.7229 13.722 61.4315 13.8188 61.9719 14.1383C62.5113 14.4544 62.8606 14.9367 63.0198 15.5851C63.1822 16.2033 63.1373 16.7996 62.8851 17.374C62.6364 17.9475 62.215 18.4553 61.621 18.8975C61.0303 19.3388 60.3033 19.6702 59.44 19.8919Z" fill="#E1000F"/>
<path d="M90.6823 15.0804L90.1312 17.2266L85.1782 15.9549L85.7293 13.8086L90.6823 15.0804Z" fill="#000091"/>
<path d="M118.434 32.5677C117.602 33.453 116.729 34.0382 115.813 34.3232C114.9 34.6057 114.004 34.6288 113.125 34.3926C112.248 34.1539 111.45 33.6966 110.73 33.0208C110.006 32.3402 109.498 31.5685 109.207 30.7059C108.921 29.8431 108.89 28.9472 109.115 28.0182C109.344 27.0889 109.872 26.1843 110.699 25.3041C111.53 24.4188 112.401 23.8337 113.312 23.5488C114.227 23.2638 115.122 23.2395 115.996 23.4758C116.876 23.7119 117.678 24.1703 118.402 24.851C119.122 25.5268 119.627 26.296 119.918 27.1586C120.212 28.0186 120.245 28.9145 120.018 29.8461C119.793 30.7752 119.265 31.6824 118.434 32.5677ZM116.213 30.482C116.66 30.0057 116.973 29.5449 117.153 29.0996C117.337 28.6541 117.386 28.2318 117.298 27.8326C117.215 27.4332 116.995 27.0658 116.638 26.7304C116.28 26.3949 115.898 26.1971 115.492 26.137C115.091 26.0768 114.672 26.1515 114.237 26.3611C113.806 26.5706 113.367 26.9135 112.92 27.3898C112.473 27.8662 112.157 28.327 111.972 28.7725C111.793 29.2178 111.745 29.6401 111.828 30.0395C111.915 30.4387 112.138 30.806 112.495 31.1415C112.852 31.4769 113.232 31.6748 113.633 31.735C114.039 31.7951 114.458 31.7204 114.888 31.5109C115.324 31.3013 115.765 30.9583 116.213 30.482Z" fill="#000091"/>
<path d="M128.13 44.2173L126.52 41.6807C126.718 41.5295 126.878 41.3607 127 41.1743C127.123 40.9909 127.203 40.7927 127.241 40.5798C127.283 40.368 127.277 40.1467 127.223 39.9159C127.172 39.6832 127.071 39.447 126.919 39.2071C126.652 38.7873 126.325 38.4967 125.936 38.3353C125.55 38.1768 125.118 38.1435 124.643 38.2352C124.169 38.33 123.665 38.5467 123.131 38.8854C122.567 39.2431 122.143 39.6178 121.857 40.0093C121.576 40.402 121.431 40.8031 121.422 41.2127C121.416 41.6205 121.541 42.0267 121.798 42.4315C121.944 42.6624 122.104 42.8512 122.277 42.9979C122.453 43.1427 122.64 43.2474 122.836 43.3119C123.033 43.3765 123.236 43.4012 123.445 43.3862C123.659 43.3723 123.874 43.3176 124.091 43.222L125.683 45.77C125.274 45.9874 124.808 46.1301 124.283 46.198C123.761 46.2641 123.219 46.2317 122.657 46.1008C122.099 45.971 121.555 45.7169 121.025 45.3385C120.494 44.9601 120.015 44.4336 119.587 43.7589C119.05 42.9134 118.75 42.0397 118.687 41.1379C118.625 40.239 118.823 39.3711 119.28 38.5342C119.74 37.7002 120.479 36.9598 121.498 36.3128C122.524 35.6621 123.513 35.3119 124.466 35.2625C125.421 35.2111 126.292 35.407 127.078 35.8503C127.867 36.2917 128.524 36.9262 129.05 37.7537C129.419 38.3354 129.679 38.921 129.83 39.5106C129.981 40.1002 130.021 40.6764 129.949 41.2393C129.881 41.8003 129.696 42.334 129.395 42.8405C129.094 43.347 128.672 43.8059 128.13 44.2173Z" fill="#000091"/>
<path d="M132.141 48.8804L134.41 48.143L137.34 57.1605L135.071 57.8979L134.057 54.7773L125.951 57.4109L125.049 54.6348L133.155 52.0011L132.141 48.8804Z" fill="#000091"/>
<path d="M133.862 74.5275C132.65 74.6037 131.613 74.4324 130.751 74.0134C129.892 73.5942 129.222 72.9976 128.743 72.2236C128.268 71.4494 127.999 70.5696 127.937 69.5844C127.874 68.592 128.032 67.6819 128.411 66.8539C128.793 66.0293 129.384 65.3552 130.184 64.8316C130.987 64.3114 131.991 64.0134 133.196 63.9376C134.408 63.8613 135.444 64.031 136.303 64.4467C137.165 64.8656 137.834 65.4605 138.309 66.2311C138.789 67.0051 139.06 67.8883 139.122 68.8807C139.184 69.8659 139.026 70.7725 138.647 71.6005C138.272 72.4282 137.683 73.104 136.88 73.6277C136.08 74.1513 135.075 74.4512 133.862 74.5275ZM133.671 71.4866C134.323 71.4456 134.867 71.3242 135.303 71.1224C135.742 70.924 136.066 70.6492 136.276 70.298C136.489 69.9501 136.58 69.5316 136.549 69.0425C136.518 68.5535 136.375 68.1479 136.12 67.8259C135.869 67.5073 135.513 67.2753 135.052 67.1299C134.594 66.9879 134.04 66.9374 133.388 66.9785C132.735 67.0195 132.19 67.1392 131.75 67.3377C131.315 67.5394 130.99 67.8142 130.777 68.1621C130.568 68.5133 130.479 68.9334 130.51 69.4225C130.541 69.9116 130.682 70.3155 130.933 70.6341C131.188 70.9561 131.544 71.1881 132.001 71.3301C132.462 71.4755 133.019 71.5276 133.671 71.4866Z" fill="#000091"/>
<path d="M128.029 79.1142L138.745 81.1583L137.859 85.8047C137.703 86.6209 137.463 87.2854 137.137 87.7981C136.811 88.3143 136.42 88.6754 135.965 88.8814C135.509 89.091 135.01 89.1438 134.465 89.04C134.071 88.9648 133.729 88.8091 133.437 88.5728C133.146 88.34 132.919 88.0474 132.759 87.695C132.602 87.3433 132.521 86.9519 132.517 86.5208L132.412 86.5009C132.307 86.958 132.11 87.3543 131.822 87.6898C131.537 88.0259 131.185 88.2697 130.766 88.421C130.35 88.5731 129.889 88.6009 129.383 88.5044C128.797 88.3926 128.305 88.1396 127.907 87.7455C127.508 87.3549 127.231 86.8538 127.076 86.2423C126.922 85.6308 126.919 84.9361 127.067 84.1582L128.029 79.1142ZM129.798 82.4665L129.538 83.827C129.445 84.3153 129.466 84.6989 129.601 84.9777C129.739 85.2571 129.988 85.4311 130.347 85.4996C130.598 85.5475 130.822 85.5306 131.018 85.4487C131.215 85.3669 131.379 85.2282 131.51 85.0327C131.64 84.8408 131.734 84.5965 131.791 84.3L132.058 82.8977L129.798 82.4665ZM133.858 83.2411L133.63 84.4341C133.582 84.6887 133.579 84.9214 133.622 85.132C133.665 85.3426 133.751 85.5163 133.881 85.6531C134.013 85.794 134.189 85.8854 134.408 85.9273C134.74 85.9905 135.015 85.9202 135.235 85.7163C135.458 85.513 135.604 85.23 135.674 84.8672L135.909 83.6324L133.858 83.2411Z" fill="#000091"/>
<path d="M124.792 92.5672L134.663 97.2121L132.658 101.473C132.313 102.205 131.878 102.784 131.353 103.208C130.828 103.632 130.242 103.878 129.598 103.948C128.953 104.017 128.28 103.887 127.58 103.557C126.873 103.225 126.351 102.787 126.014 102.243C125.675 101.703 125.515 101.093 125.534 100.411C125.551 99.7319 125.737 99.0165 126.09 98.2647L127.288 95.7198L129.37 96.6996L128.427 98.7046C128.278 99.0195 128.191 99.306 128.163 99.564C128.138 99.8267 128.184 100.058 128.302 100.259C128.418 100.463 128.615 100.63 128.895 100.762C129.178 100.895 129.436 100.942 129.67 100.903C129.906 100.869 130.119 100.759 130.308 100.573C130.499 100.392 130.669 100.144 130.817 99.8296L131.262 98.8849L123.531 95.247L124.792 92.5672ZM126.601 100.483L120.909 100.819L122.279 97.9075L127.943 97.6296L126.601 100.483Z" fill="#000091"/>
<path d="M117.899 105.292L126.305 112.245L121.293 118.303L119.455 116.782L122.579 113.006L121.134 111.811L118.268 115.275L116.429 113.754L119.295 110.29L117.85 109.095L114.74 112.854L112.901 111.333L117.899 105.292Z" fill="#000091"/>
<path d="M93.0534 130.212L92.2376 128.152L96.9922 126.27L97.8079 128.33L93.0534 130.212Z" fill="#000091"/>
</svg>
