<svg width="30" height="42" viewBox="0 0 30 42" fill="none" xmlns="http://www.w3.org/2000/svg">
<path d="M13.0483 18.6421L11.1546 22.4004C10.9211 22.8321 10.7655 23.3146 10.6876 23.7971L9.59812 29.5108C9.209 31.5932 9.90941 33.7009 11.4918 35.1484L14.0859 37.51C14.6307 37.9925 15.4867 37.5608 15.4089 36.8498L14.06 26.2858C14.034 26.0826 14.0081 25.9048 14.0081 25.7017L13.7227 18.7691C13.6968 18.4135 13.2039 18.312 13.0483 18.6421Z" fill="#E5E5E5"/>
<path d="M16.0832 22.5784C15.8498 22.2229 15.2791 22.4261 15.331 22.8578L15.8498 28.0128C15.9017 28.6223 16.0573 29.2063 16.2648 29.765L18.8849 36.4437C19.8447 38.8561 21.9719 40.6337 24.5919 41.1416L28.8462 41.9796C29.7282 42.1574 30.3508 41.1416 29.7801 40.456L16.0832 22.5784Z" fill="#000091"/>
<path d="M3.29451 11.2269L1.78993 12.5474C0.648525 13.5124 0 14.9344 0 16.4327V16.6359L2.87945 15.7724C3.55392 15.5693 4.30621 15.7471 4.79909 16.2295L5.03256 16.4581C5.55138 16.966 5.73296 17.7532 5.47355 18.4388L4.56562 20.9021C3.89115 22.7305 3.94303 24.7366 4.72127 26.5142L5.75891 28.9267C6.01832 29.5361 6.92625 29.46 7.10784 28.8251L8.61242 23.3907C8.89777 22.375 9.39065 21.4354 10.0651 20.6481L12.5295 17.7786C13.3337 16.839 13.5412 15.5439 13.1002 14.4012L12.1923 12.0649C12.0107 11.5824 12.3998 11.0999 12.9186 11.1507L13.2559 11.2015C15.7462 11.5062 18.0549 12.5474 19.9746 14.1218L21.7905 15.6455C21.998 15.8232 22.3352 15.6455 22.3093 15.3661L22.1277 13.9695C21.8164 11.43 20.3118 9.14454 18.0809 7.82404L16.4466 6.85906L20.2081 5.71632C20.5453 5.61474 20.5453 5.15764 20.2081 5.05607L16.4725 4.0149C15.1755 3.65938 13.7747 3.91332 12.7111 4.75133L12.5555 4.87831C12.2442 5.10685 11.8291 4.77673 12.0107 4.4466L14.086 0.510491C14.2416 0.231154 13.9563 -0.098971 13.645 0.0280004L6.5112 2.669C4.74721 3.30386 3.34639 4.64976 2.64598 6.35117C2.17905 7.46852 2.38657 8.73823 3.1648 9.67782L3.39827 9.95716C3.73551 10.3381 3.68362 10.8967 3.29451 11.2269Z" fill="#E1000F"/>
</svg>
