<svg width="120" height="120" viewBox="0 0 120 120" fill="none" xmlns="http://www.w3.org/2000/svg">
    <circle cx="60" cy="60" r="35" fill="white"/>
    <path d="M93.6873 59.9575C93.6873 78.5641 78.6491 93.6024 60.0425 93.6024C41.4359 93.6024 26.3127 78.5641 26.3127 59.9575C26.3127 41.3509 41.4359 26.3127 59.9575 26.3127C78.4792 26.3127 93.6873 41.4359 93.6873 59.9575ZM110 59.9575C110 32.3449 87.5701 10 59.9575 10C32.3449 10 10 32.3449 10 59.9575C10 87.5701 32.3449 109.915 59.9575 109.915C87.5701 109.915 110 87.5701 110 59.9575Z" fill="#E32021"/>
    <path d="M99.8857 56.559L99.5459 54.5199L104.983 53.7553L104.729 51.9711L99.291 52.7357L98.9511 50.6967L97.3369 50.9515L98.1865 56.8139L99.8857 56.559ZM105.408 63.7808V61.9966L100.99 61.9116L105.493 59.4477L105.578 57.1538L98.5263 56.9838V58.768L102.944 58.853L98.4414 61.3169L98.3564 63.6109L105.408 63.7808ZM104.389 69.8131L105.153 65.48L103.709 65.2251L103.284 67.774L101.925 67.5191L102.265 65.395L100.82 65.1402L100.48 67.2642L99.291 67.0943L99.7158 64.5454L98.2715 64.2905L97.5068 68.6236L104.389 69.8131ZM101.67 73.8912C101.245 74.9957 100.141 75.5055 99.0361 75.0807C97.9316 74.6559 97.3369 73.6363 97.7617 72.5318C98.0166 71.8521 98.5263 71.5123 99.0361 71.3424L98.5263 69.6431C97.5068 69.983 96.5722 70.7476 96.1474 72.0221C95.3828 74.1461 96.4873 76.1852 98.3564 76.8649C100.226 77.5446 102.435 76.61 103.199 74.486C103.624 73.2115 103.539 72.0221 102.859 71.0875L99.8857 70.0679L98.6963 73.2965L100.141 73.8063L100.65 72.277L101.5 72.6168C101.84 72.9566 101.84 73.3815 101.67 73.8912ZM96.6572 80.8581L95.1279 79.2438L97.3369 79.5837L96.6572 80.8581ZM98.0166 85.0212L98.9511 83.322L97.7617 82.0476L98.9511 79.8385L100.735 80.0934L101.67 78.3942L94.1083 77.2897L93.0038 79.3288L98.0166 85.0212ZM94.4482 87.0603C93.6835 87.9949 92.4941 88.1648 91.5595 87.4001C90.6249 86.6355 90.455 85.446 91.1347 84.5964C91.5595 84.0017 92.1542 83.8318 92.7489 83.9167V82.1325C91.6444 82.1325 90.5399 82.5573 89.7753 83.5769C88.3309 85.3611 88.7557 87.655 90.37 88.8445C91.9843 90.034 94.2783 89.949 95.7226 88.1648C96.5722 87.1453 96.8271 85.8708 96.5722 84.8513L94.1083 82.8972L91.9843 85.616L93.1738 86.5505L94.1933 85.2761L94.9579 85.8708C94.873 86.2107 94.788 86.7205 94.4482 87.0603ZM87.0565 96.4061L88.4159 95.2166L85.5272 91.8182L90.285 93.6024L92.0692 92.158L87.4813 86.7205L86.1219 87.9099L89.0106 91.3084L84.2528 89.5242L82.4686 90.9685L87.0565 96.4061ZM81.7889 99.6346L85.5272 97.4256L84.7625 96.1512L82.5535 97.4256L81.8738 96.2362L83.743 95.1317L82.9783 93.8572L81.1092 94.9617L80.5145 93.8572L82.7234 92.5828L81.9588 91.3084L78.2205 93.5174L81.7889 99.6346ZM77.9656 97.0008L77.7957 93.6873L76.1814 94.452L76.6062 97.5956L77.9656 97.0008ZM72.528 102.353C73.3777 102.863 74.3122 103.033 75.5017 102.523C76.7761 102.099 77.5408 100.909 77.116 99.6346C76.2664 97.2557 73.4626 98.7001 73.1228 97.6805C73.0378 97.4256 73.2077 97.0858 73.5476 97.0008C73.9724 96.8309 74.5671 97.0008 75.0769 97.3407L75.9265 95.8114C75.0769 95.3016 74.0574 95.1317 73.0378 95.5565C71.6784 96.0662 71.0837 97.2557 71.5085 98.4452C72.3581 100.739 75.1619 99.3798 75.5017 100.399C75.6716 100.739 75.4167 101.079 75.0769 101.164C74.5671 101.334 73.9724 101.249 73.4626 100.909L72.528 102.353ZM64.0319 103.883C64.7965 104.477 65.6461 104.817 66.9206 104.647C68.28 104.477 69.2145 103.458 69.0446 102.099C68.7048 99.6346 65.6461 100.484 65.4762 99.3798C65.3913 99.1249 65.6461 98.87 65.986 98.785C66.4958 98.7001 66.9206 99.0399 67.4303 99.3798L68.5348 98.0204C67.7702 97.4256 66.8356 97.0858 65.7311 97.1707C64.2867 97.3407 63.4371 98.5301 63.6071 99.6346C63.9469 102.014 67.0055 101.249 67.1755 102.268C67.2604 102.693 67.0055 102.863 66.5807 102.948C66.0709 103.033 65.4762 102.778 65.0514 102.353L64.0319 103.883ZM58.6793 104.987H63.0123V103.458H60.4635V102.099H62.6725V100.569H60.4635V99.2948H63.0123V97.7655H58.6793V104.987ZM52.0523 103.288C52.647 104.138 53.3267 104.647 54.6861 104.817C56.0455 104.987 57.2349 104.308 57.4048 102.863C57.6597 100.399 54.6011 100.399 54.6861 99.2948C54.6861 99.0399 55.0259 98.785 55.3658 98.87C55.8755 98.9549 56.2154 99.2948 56.5552 99.8895L57.9996 98.87C57.4048 98.1053 56.6402 97.5106 55.5357 97.3407C54.0913 97.1708 52.9868 98.0204 52.9019 99.2098C52.647 101.589 55.7906 101.674 55.6207 102.693C55.5357 103.118 55.2808 103.288 54.856 103.203C54.3462 103.118 53.8365 102.778 53.4966 102.183L52.0523 103.288ZM48.9087 103.458L50.6929 103.883L52.3921 97.0008L50.6079 96.576L48.9087 103.458ZM46.5297 96.8309C46.9545 97.0008 47.1245 97.3407 46.9545 97.7655C46.7846 98.1903 46.4448 98.3602 46.02 98.1903L45.3403 97.9354L45.85 96.576L46.5297 96.8309ZM42.1967 101.164L43.8959 101.844L44.8305 99.3798L45.2553 99.5497L45.935 102.693L47.8891 103.458L46.9545 99.8895C47.7192 99.8046 48.3989 99.3798 48.6538 98.5301C49.1636 97.2557 48.4839 96.0662 46.9545 95.4715L44.7455 94.6219L42.1967 101.164ZM41.432 94.452C41.8568 94.7069 41.9418 95.0467 41.7719 95.3866C41.602 95.8114 41.1771 95.8963 40.7523 95.7264L39.9877 95.3016L40.6674 94.0272L41.432 94.452ZM36.5042 98.1903L38.1185 99.0399L39.3929 96.661L40.0726 97.0008C41.517 97.7655 42.7914 97.5956 43.4711 96.3211C44.1508 95.1317 43.641 93.8572 42.1967 93.0926L39.9877 91.9031L36.5042 98.1903ZM31.4915 94.5369L34.9749 97.1707L35.9095 95.9813L33.7855 94.367L34.6351 93.2625L36.3343 94.5369L37.2689 93.3475L35.5697 92.073L36.3343 91.0535L38.3734 92.5828L39.308 91.3934L35.8246 88.7595L31.4915 94.5369ZM32.1712 87.4001C32.511 87.74 32.4261 88.0798 32.1712 88.4197C31.8314 88.7595 31.4915 88.7595 31.1517 88.4197L30.6419 87.9099L31.6614 86.8904L32.1712 87.4001ZM26.3938 89.5242L27.6682 90.7986L29.6223 88.9295L29.9622 89.2693L29.1975 92.4129L30.6419 93.9422L31.2366 90.2888C32.0013 90.5437 32.7659 90.3738 33.3607 89.7791C34.3802 88.8445 34.2103 87.4851 33.1058 86.2956L31.4065 84.5964L26.3938 89.5242ZM26.4788 80.5182L27.6682 82.2175L23.2502 85.446L24.2698 86.8904L28.6878 83.6618L29.8772 85.3611L31.2366 84.4265L27.7532 79.5837L26.4788 80.5182ZM18.4074 76.525L19.172 78.1393L23.1653 76.1852L20.3615 80.4333L21.3811 82.4724L27.7532 79.3288L26.9885 77.7145L22.9104 79.6686L25.7141 75.4205L24.6946 73.3815L18.4074 76.525ZM16.6232 70.6627L17.8976 74.8258L19.342 74.401L18.5773 71.9371L19.9367 71.5123L20.5314 73.5514L21.9758 73.1266L21.3811 71.0875L22.5705 70.7476L23.3352 73.2115L24.7795 72.7867L23.4201 68.6236L16.6232 70.6627ZM16.2833 61.062C15.6037 61.7417 15.2638 62.6763 15.3488 63.9507C15.5187 65.3101 16.3683 66.3296 17.8127 66.1597C20.2766 65.9048 19.5969 62.8462 20.7014 62.7612C20.9562 62.7612 21.2111 62.9312 21.2961 63.356C21.3811 63.8657 21.0412 64.2905 20.6164 64.8003L21.9758 65.9898C22.6555 65.2251 22.9953 64.3755 22.9104 63.271C22.7404 61.8267 21.7209 60.977 20.5314 61.062C18.1525 61.3169 18.7472 64.3755 17.7277 64.4605C17.3029 64.4605 17.133 64.2905 17.048 63.8657C16.963 63.356 17.3029 62.7612 17.7277 62.3364L16.2833 61.062ZM15.5187 55.7094L15.3488 60.0425L16.7931 60.1274L16.8781 57.5786H18.3224L18.2375 59.7026L19.6818 59.7876L19.7668 57.6635L21.0412 57.7485L20.9562 60.2973L22.4856 60.3823L22.6555 56.0493L15.5187 55.7094ZM16.4533 50.017L15.6886 54.35L17.3029 54.6049L17.7277 52.0561L23.0803 52.9906L23.4201 51.2064L16.4533 50.017Z" fill="white"/>
    <path d="M87.7418 25.8878C87.7418 25.9728 87.7418 26.1427 87.6568 26.2276C87.4869 26.4825 87.232 26.5675 86.8921 26.6525C86.5523 26.6525 86.0425 26.5675 85.3628 26.3126C85.7876 25.8878 86.2124 25.6329 86.5523 25.548C86.9771 25.378 87.317 25.463 87.5718 25.6329C87.7418 25.6329 87.7418 25.8028 87.7418 25.8878ZM85.1079 29.7111C85.7027 29.7111 86.2125 29.5412 86.7222 29.2863V29.0314C85.9576 29.1163 85.4478 29.0314 85.1079 28.7765C84.8531 28.6066 84.6831 28.2667 84.5982 27.9269C84.5982 27.587 84.6831 27.2472 84.938 26.9073C85.023 26.8224 85.1079 26.7374 85.1079 26.6525C86.2974 27.1622 87.147 27.4171 87.6568 27.4171C88.1666 27.4171 88.5064 27.3322 88.7613 26.9923C88.9312 26.7374 88.9312 26.4825 88.9312 26.2276C88.8463 25.9728 88.6763 25.6329 88.3365 25.463C87.8267 25.0382 87.232 24.8683 86.5523 24.8683C85.9576 24.8683 85.2779 25.0382 84.7681 25.2931C84.1734 25.548 83.7486 25.9728 83.4087 26.4825C82.9839 26.9923 82.814 27.5021 82.8989 28.0118C82.8989 28.5216 83.2388 28.9464 83.7486 29.3712C84.0034 29.6261 84.5132 29.7111 85.1079 29.7111ZM79.5005 26.5675L81.8794 23.5938C82.2192 23.4239 82.4741 23.3389 82.6441 23.3389C82.814 23.3389 82.9839 23.3389 83.1538 23.4239C83.3237 23.5089 83.4937 23.6788 83.5786 23.9337L83.6636 24.1036H83.7486L84.5132 23.5089C84.5982 23.4239 84.5982 23.4239 84.6831 23.3389C84.7681 23.254 84.7681 23.0841 84.6831 22.9991C84.5982 22.8292 84.5132 22.7442 84.3433 22.6593C84.1734 22.5743 83.9185 22.4893 83.6636 22.5743C83.4087 22.5743 82.9839 22.8292 82.3892 23.0841H82.3042L82.8989 21.8946L80.6899 21.2149L80.605 21.3848L81.1147 22.1495L78.1411 25.8878L79.5005 26.5675ZM76.9516 24.9532C77.3764 24.7833 77.8012 24.4434 78.226 23.9337L78.0561 23.7638C77.5463 24.1886 77.2065 24.3585 76.9516 24.2735C76.7817 24.1886 76.7817 24.0186 77.0366 23.6788L79.3305 20.1104L76.7817 19.5157L76.6967 19.6856L77.2915 20.3653L75.5073 23.0841C75.1674 23.5089 75.0825 23.9337 75.1674 24.2735C75.2524 24.6134 75.4223 24.8683 75.7622 25.0382C76.187 25.1231 76.5268 25.1231 76.9516 24.9532ZM80.0102 18.836C80.2651 18.751 80.4351 18.5811 80.52 18.3262C80.605 18.0713 80.605 17.8164 80.52 17.6465C80.4351 17.3916 80.2651 17.2217 80.0102 17.1367C79.7554 17.0518 79.5005 17.0518 79.3305 17.1367C79.0757 17.2217 78.9057 17.3916 78.8208 17.6465C78.7358 17.9014 78.7358 18.1563 78.8208 18.3262C78.9057 18.5811 79.0757 18.751 79.3305 18.836C79.5854 18.9209 79.7554 18.9209 80.0102 18.836ZM71.4291 18.9209C71.8539 18.4112 72.2787 18.2412 72.7035 18.3262C72.9584 18.4112 73.1283 18.5811 73.2983 18.836L72.0238 21.4698C71.769 21.6397 71.5141 21.8096 71.3441 21.9796C71.0893 22.0645 70.9193 22.1495 70.6644 22.0645C70.3246 21.9796 70.2396 21.5548 70.4945 20.8751C70.7494 20.0254 71.0043 19.4307 71.4291 18.9209ZM70.4945 22.8292C70.8344 22.6593 71.2592 22.4893 71.7689 22.0645C71.4291 22.9141 71.684 23.4239 72.3637 23.6788C72.7035 23.7638 73.1283 23.6788 73.4682 23.5089C73.808 23.254 74.2328 22.9141 74.5727 22.4044L74.4028 22.2344C73.978 22.7442 73.6381 22.9141 73.3832 22.8292C73.2133 22.7442 73.2133 22.5743 73.2983 22.2344L75.0825 18.4961L74.8276 18.4112L74.3178 18.4961C74.0629 18.2412 73.808 17.9864 73.3832 17.9014C72.7885 17.7315 72.2787 17.8164 71.599 17.9864C71.0043 18.2412 70.4096 18.5811 69.8998 19.0909C69.39 19.6006 69.0502 20.2803 68.7953 21.045C68.6254 21.5547 68.6254 21.9796 68.7953 22.2344C68.9652 22.4893 69.1351 22.7442 69.475 22.8292C69.7299 22.9991 70.1547 22.9991 70.4945 22.8292ZM63.0179 21.8096L64.0374 17.9014C64.2074 17.7315 64.3773 17.5615 64.6322 17.4766C64.8871 17.3067 65.057 17.3067 65.2269 17.3067C65.4818 17.3067 65.6517 17.3916 65.7367 17.6465C65.8216 17.8164 65.8216 17.9864 65.7367 18.2412L65.1419 20.5352C64.8021 21.6397 65.1419 22.2344 65.9916 22.3194C66.4164 22.3194 66.7562 22.2344 67.0961 21.8946C67.4359 21.5547 67.6908 21.1299 68.0306 20.5352L67.7757 20.3653C67.4359 20.96 67.181 21.2149 66.8412 21.1299C66.6712 21.1299 66.5863 20.8751 66.6712 20.5352L67.3509 18.2412C67.5209 17.7315 67.5209 17.2217 67.266 16.8819C67.0961 16.542 66.7562 16.3721 66.3314 16.2871C65.9066 16.2871 65.6517 16.2871 65.3119 16.457C65.057 16.627 64.6322 16.8819 64.2074 17.3067H64.1224L64.3773 16.1172L62.0833 16.2871V16.457L62.848 16.9668L61.5735 21.5548L63.0179 21.8096ZM59.1946 16.542C59.2796 16.627 59.2796 16.7969 59.2796 16.8819C59.2796 17.1367 59.1946 17.4766 58.9397 17.6465C58.6848 17.9014 58.26 18.1563 57.4954 18.3262C57.5803 17.7315 57.6653 17.3067 57.9202 16.9668C58.1751 16.627 58.43 16.457 58.7698 16.457C59.0247 16.457 59.1096 16.457 59.1946 16.542ZM59.4495 21.2149C59.8743 20.7901 60.2142 20.3653 60.469 19.8555L60.2991 19.6856C59.7893 20.1954 59.2796 20.4502 58.8548 20.5352C58.5149 20.5352 58.1751 20.4502 57.9202 20.1954C57.6653 19.9405 57.5803 19.6006 57.4954 19.1758C57.4954 19.0909 57.4954 18.9209 57.4954 18.836C58.6848 18.4961 59.5345 18.1563 59.9593 17.9014C60.3841 17.5615 60.554 17.2217 60.554 16.8819C60.554 16.627 60.3841 16.3721 60.2141 16.2022C59.9593 16.0322 59.6194 15.9473 59.1946 15.9473C58.5149 15.9473 57.9202 16.2022 57.4954 16.542C56.9856 16.9668 56.6458 17.3916 56.3909 17.9864C56.136 18.5811 55.9661 19.1758 56.051 19.7706C56.051 20.4502 56.3059 20.96 56.5608 21.2999C56.9006 21.6397 57.4104 21.8096 58.0901 21.8096C58.5999 21.8096 59.0247 21.6397 59.4495 21.2149ZM55.0315 19.6856L54.7766 19.6006C54.6916 20.0254 54.5217 20.3653 54.3518 20.5352C54.1819 20.7051 54.0119 20.8751 53.842 20.8751C53.5871 20.96 53.4172 20.7901 53.3322 20.3653C53.3322 20.2803 53.3322 20.1104 53.3322 19.8555V16.9668L54.9465 16.7969L54.8616 16.2871L53.3322 16.542V15.1826H53.0774L52.1428 16.3721L50.9533 17.2217V17.3916L51.718 17.2217V20.5352C51.718 20.6202 51.718 20.7051 51.718 20.8751C51.718 20.96 51.718 21.045 51.718 21.1299C51.8879 21.9796 52.3127 22.4044 53.1623 22.2344C54.1819 22.2344 54.7766 21.2999 55.0315 19.6856ZM48.7443 23.254L48.4045 19.4307C48.4894 19.0909 48.6593 18.836 48.7443 18.751C48.8293 18.5811 48.9992 18.4961 49.1691 18.4961C49.339 18.4112 49.5939 18.4961 49.7639 18.5811L49.9338 18.666H50.0187L50.1887 17.7315C50.1887 17.6465 50.1887 17.5615 50.1887 17.4766C50.1887 17.3916 50.1037 17.3067 49.9338 17.2217C49.7639 17.1367 49.5939 17.1367 49.424 17.2217C49.2541 17.3067 48.9992 17.3916 48.9142 17.5615C48.7443 17.7315 48.5744 18.1563 48.3195 18.836H48.2345L47.8947 17.5615L45.7706 18.5811V18.751L46.7052 18.9209L47.13 23.6788L48.7443 23.254ZM41.3526 21.4698C41.3526 20.7901 41.6075 20.3653 41.9474 20.1954C42.2023 20.1104 42.4571 20.1104 42.712 20.1954L43.3917 23.0841C43.3068 23.3389 43.2218 23.6788 43.1368 23.8487C43.0519 24.1036 42.8819 24.2735 42.712 24.3585C42.3722 24.5284 42.1173 24.1886 41.7774 23.5089C41.4376 22.8292 41.2677 22.1495 41.3526 21.4698ZM43.0519 25.1231C43.2218 24.7833 43.3917 24.3585 43.5616 23.7638C43.8165 24.6134 44.3263 24.9532 45.091 24.6134C45.4308 24.4435 45.6857 24.1886 45.8556 23.7638C46.0255 23.3389 46.0255 22.8292 46.0255 22.1495H45.7706C45.7706 22.8292 45.6007 23.169 45.3458 23.254C45.1759 23.3389 45.006 23.169 44.921 22.8292L43.9865 18.751L43.7316 18.836L43.2218 19.3457C42.8819 19.2608 42.5421 19.3457 42.1173 19.5157C41.6075 19.7706 41.1827 20.1104 40.7579 20.7051C40.4181 21.2999 40.1632 21.8946 40.0782 22.6593C39.9933 23.4239 40.1632 24.1036 40.4181 24.8683C40.588 25.378 40.8429 25.6329 41.1827 25.8028C41.5226 25.9728 41.7774 25.9728 42.1173 25.8878C42.5421 25.7179 42.797 25.463 43.0519 25.1231ZM34.1309 21.6397C35.0655 21.045 35.7452 21.1299 36.2549 21.8946C36.5098 22.3194 36.6797 22.8292 36.5948 23.254C36.5098 23.7638 36.2549 24.1036 35.6602 24.5284L35.0655 24.9532L33.7061 21.8946L34.1309 21.6397ZM37.6993 28.2667L37.6143 28.0968L36.4249 28.2667L35.2354 25.548L35.7452 25.2081C36.8497 24.5284 37.5294 23.7638 37.7842 22.9991C38.0391 22.2344 38.0391 21.5547 37.6143 20.96C36.9346 19.8555 35.6602 19.8555 33.961 21.045L31.2422 22.7442L31.3271 22.9141L32.3467 22.8292L34.9805 29.1163L34.3858 30.1359L34.4707 30.3058L37.6993 28.2667Z" fill="white"/>
    <path d="M56.4743 53.8403L53.9255 58.938C53.6706 59.5327 53.4157 60.1275 53.3307 60.8072L51.8864 68.6237C51.3766 71.4274 52.3112 74.3161 54.4352 76.2702L57.8337 79.4988C58.5134 80.1785 59.7029 79.5837 59.6179 78.5642L57.8337 64.2056C57.8337 63.9508 57.7487 63.6959 57.7487 63.441L57.4089 54.0102C57.3239 53.5854 56.6442 53.4155 56.4743 53.8403Z" fill="#E5E5E5"/>
    <path d="M60.4636 59.1928C60.1237 58.6831 59.3591 59.0229 59.444 59.5327L60.1237 66.4996C60.2087 67.3492 60.3786 68.1138 60.7185 68.8785L64.2019 77.9694C65.4763 81.2829 68.2801 83.6618 71.7635 84.3415L77.4559 85.446C78.6454 85.7009 79.495 84.3415 78.7304 83.4069L60.4636 59.1928Z" fill="#000091"/>
    <path d="M43.4727 43.8148L41.4336 45.599C39.9043 46.9583 39.0547 48.8275 39.0547 50.8666V51.1215L42.878 49.932C43.8125 49.6771 44.7471 49.932 45.4268 50.5267L45.7667 50.8666C46.4464 51.5463 46.7012 52.6508 46.3614 53.5854L45.1719 56.8989C44.3223 59.3628 44.3223 62.0815 45.4268 64.5454L46.7862 67.8589C47.1261 68.7085 48.3155 68.6236 48.5704 67.774L50.5245 60.3823C50.8644 59.0229 51.5441 57.7485 52.4786 56.644L55.7922 52.7357C56.8967 51.4613 57.1515 49.6771 56.5568 48.1478L55.3673 45.0042C55.1125 44.3245 55.6222 43.6448 56.3019 43.7298L56.7267 43.8148C60.0402 44.2396 63.0989 45.599 65.6477 47.808L68.1116 49.847C68.3665 50.1019 68.8763 49.847 68.7913 49.5072L68.5364 47.638C68.1116 44.1546 66.1575 41.096 63.1838 39.3118L60.9748 37.9524L65.9876 36.4231C66.4124 36.2532 66.4124 35.6584 65.9876 35.4885L60.9748 34.0442C59.2756 33.5344 57.4064 33.9592 55.9621 35.0637L55.7922 35.2336C55.3673 35.5735 54.8576 35.0637 55.1125 34.6389L57.9162 29.2863C58.0861 28.8615 57.7463 28.4367 57.3215 28.6066L47.8057 32.175C45.5118 33.0246 43.6426 34.8938 42.708 37.1877C42.1133 38.7171 42.3682 40.4163 43.3877 41.6907L43.7276 42.0306C44.0674 42.6253 43.9825 43.305 43.4727 43.8148Z" fill="#E1000F"/>
</svg>
