<svg width="200" height="120" viewBox="0 0 200 120" fill="none" xmlns="http://www.w3.org/2000/svg">
<g clip-path="url(#clip0_10128_40969)">
<path d="M83.9219 103.673L86.5957 101.783L96.5066 115.687L102.959 111.088L104.706 113.548L95.6153 120.036L83.9219 103.673Z" fill="#E1000F"/>
<path d="M96.3633 94.7951L105.454 88.3066L107.058 90.5883L100.606 95.1872L103.921 99.8218L109.447 95.9002L111.051 98.1462L105.525 102.068L109.055 106.988L115.508 102.389L117.112 104.635L108.021 111.159L96.3633 94.7951Z" fill="#E1000F"/>
<path d="M115.758 80.963L120.891 77.291L128.271 80.8204L127.344 72.6564L132.478 68.9844L144.136 85.3124L139.965 88.2714L132.478 77.7544L133.191 84.6707L130.375 86.7027L124.064 83.815L131.551 94.332L127.38 97.291L115.758 80.963Z" fill="#000091"/>
<path d="M158.896 62.4594C162.247 67.1296 161.534 73.618 156.329 77.3257C151.124 81.0334 144.742 79.6073 141.391 74.9371C138.04 70.2669 138.753 63.7785 143.958 60.0352C149.163 56.3631 155.544 57.7892 158.896 62.4594ZM154.617 65.4897C152.657 62.7446 149.377 62.1029 146.774 63.9211C144.172 65.7749 143.744 69.1261 145.669 71.8712C147.63 74.6163 150.91 75.258 153.548 73.4041C156.15 71.586 156.578 68.2348 154.617 65.4897Z" fill="#000091"/>
<path d="M156.186 52.0508L160.357 49.0918L172.014 65.4198L167.843 68.3788L156.186 52.0508Z" fill="#000091"/>
<path d="M174.261 56.1502C175.936 56.6849 177.754 56.5067 178.931 55.6511C179.894 54.9737 180.179 54.1181 179.501 53.1912C177.719 50.6956 171.123 56.6493 167.095 51.0521C165.134 48.307 165.812 44.4211 169.127 42.0682C171.73 40.2143 174.51 39.8935 177.255 40.4995L176.222 45.4193C174.475 44.9915 172.87 44.8846 171.765 45.6689C170.91 46.2749 170.696 47.2019 171.195 47.8792C172.942 50.3035 179.537 44.3498 183.601 50.0539C185.883 53.3694 184.671 57.0414 181.569 59.2518C178.574 61.3908 175.901 61.7117 173.191 61.07L174.261 56.1502Z" fill="#000091"/>
<path d="M194.404 46.1675C193.477 44.8485 193.762 42.959 195.152 41.9608C196.471 41.0338 198.396 41.319 199.323 42.6381C200.286 43.9572 199.929 45.918 198.61 46.8449C197.256 47.8431 195.366 47.5223 194.404 46.1675ZM184.6 31.7647L188.842 28.7344L195.687 40L193.013 41.8895L184.6 31.7647Z" fill="#000091"/>
<path d="M168.865 31.3793L78.3105 96.0898L78.6836 96.6119L169.238 31.9014L168.865 31.3793Z" fill="#000091"/>
<path d="M46.3105 52.0501L49.02 50.125L54.9023 58.289L58.7526 55.5439L60.4995 57.9681L53.9398 62.674L46.3105 52.0501Z" fill="#E1000F"/>
<path d="M53.8672 46.6317L60.4269 41.9258L62.0312 44.1718L58.1809 46.9169L59.5356 48.8064L62.7798 46.4534L64.3841 48.6994L61.1399 51.0167L62.6016 53.0844L66.4519 50.3037L68.0561 52.5497L61.4964 57.2556L53.8672 46.6317Z" fill="#E1000F"/>
<path d="M68.2003 47.4862C69.3055 47.8427 70.482 47.7001 71.2663 47.1653C71.8723 46.7019 72.0863 46.1671 71.6228 45.561C70.4463 43.9211 66.1683 47.8427 63.5658 44.1707C62.2823 42.3881 62.7101 39.8569 64.8848 38.324C66.5604 37.1118 68.4142 36.8979 70.1611 37.2901L69.4838 40.4986C68.3429 40.2134 67.2734 40.1778 66.5604 40.6769C66.0256 41.0691 65.883 41.6751 66.2039 42.1029C67.3447 43.6716 71.6228 39.7856 74.2966 43.529C75.7939 45.668 75.0096 48.0922 72.9775 49.5183C71.0167 50.9086 69.3055 51.1225 67.523 50.7304L68.2003 47.4862Z" fill="#E1000F"/>
<path d="M55.8281 65.3114L62.3878 60.6055L63.9921 62.8158L60.1418 65.5966L61.4609 67.4504L64.7051 65.1331L66.3094 67.3434L63.0652 69.6964L64.5625 71.7641L68.4128 68.9834L70.0171 71.2294L63.4574 75.9352L55.8281 65.3114Z" fill="#E1000F"/>
<path d="M63.9922 59.429L67.4146 56.9691L76.0064 60.855L71.2293 54.224L73.9387 52.2988L81.5679 62.9227L78.1455 65.3826L69.5537 61.4967L74.3309 68.1277L71.6214 70.0528L63.9922 59.429Z" fill="#E1000F"/>
<path d="M74.9023 51.5865L83.815 45.2051L85.5619 47.665L82.4603 49.8753L88.3426 58.0393L85.6332 60.0001L79.7865 51.8004L76.6849 54.0464L74.9023 51.5865Z" fill="#E1000F"/>
<path d="M84.8125 44.4928L88.3776 41.926C90.8731 40.1435 93.2973 40.2504 94.759 42.3538C95.6859 43.6372 95.7929 45.0633 95.1155 46.3467L101.604 48.5214L98.431 50.803L92.8695 48.6996L92.2278 49.1631L95.1155 53.1916L92.4061 55.1167L84.8125 44.4928ZM89.1262 44.778L90.6592 46.9171L91.6931 46.1684C92.3704 45.6693 92.4417 44.9563 91.9783 44.3146C91.5505 43.7085 90.8375 43.5659 90.1601 44.0294L89.1262 44.778Z" fill="#E1000F"/>
<path d="M94.3672 37.6121L100.927 32.9062L102.531 35.1522L98.6809 37.933L100 39.7868L103.28 37.4339L104.848 39.6799L101.604 41.9972L103.102 44.0649L106.952 41.3198L108.556 43.5301L101.996 48.236L94.3672 37.6121Z" fill="#E1000F"/>
<path d="M102.531 31.7644L106.31 29.0549C108.806 27.2724 111.23 27.3793 112.692 29.4827C114.189 31.5504 113.512 33.8677 111.052 35.6503L109.947 36.4346L112.834 40.4631L110.125 42.3882L102.531 31.7644ZM106.845 32.0496L108.378 34.1886L109.626 33.2973C110.303 32.7982 110.374 32.0852 109.911 31.4435C109.483 30.8374 108.77 30.6948 108.093 31.1583L106.845 32.0496Z" fill="#E1000F"/>
<path d="M111.158 25.5612L114.723 22.9944C117.219 21.2118 119.643 21.3188 121.105 23.4222C122.032 24.7056 122.139 26.1316 121.461 27.415L127.95 29.5897L124.777 31.8714L119.215 29.768L118.574 30.2314L121.461 34.26L118.752 36.1851L111.158 25.5612ZM115.472 25.8464L117.005 27.9854L118.039 27.2368C118.716 26.7377 118.787 26.0247 118.324 25.383C117.896 24.7769 117.183 24.6343 116.506 25.0977L115.472 25.8464Z" fill="#E1000F"/>
<path d="M123.431 16.7672L120.738 18.7012L128.37 29.3278L131.063 27.3939L123.431 16.7672Z" fill="#E1000F"/>
<path d="M131.622 21.9959C132.727 22.3524 133.904 22.2098 134.688 21.6751C135.294 21.2116 135.508 20.6769 135.045 20.0708C133.868 18.4309 129.59 22.3524 126.988 18.6804C125.704 16.8979 126.132 14.3667 128.307 12.8337C129.982 11.6216 131.836 11.4077 133.583 11.7999L132.906 15.0084C131.765 14.7232 130.695 14.6876 129.982 15.1867C129.448 15.5788 129.305 16.1849 129.626 16.6127C130.767 18.1813 135.045 14.2954 137.718 18.0387C139.216 20.1778 138.431 22.602 136.399 24.028C134.439 25.4184 132.727 25.6323 130.945 25.2401L131.622 21.9959Z" fill="#E1000F"/>
<path d="M133.477 9.55354L140.036 4.84766L141.641 7.05799L137.79 9.83874L139.109 11.6926L142.354 9.37529L143.958 11.5856L140.714 13.9386L142.211 16.0063L146.061 13.2256L147.666 15.4715L141.106 20.1774L133.477 9.55354Z" fill="#E1000F"/>
<path d="M147.773 10.3748C148.878 10.7313 150.054 10.5887 150.839 10.054C151.445 9.59053 151.659 9.05577 151.195 8.44971C150.019 6.80978 145.741 10.7313 143.138 7.05933C141.855 5.2768 142.282 2.74561 144.457 1.21263C146.133 0.000511091 147.987 -0.213393 149.733 0.178764L149.056 3.38732C147.915 3.10212 146.846 3.06646 146.133 3.56557C145.598 3.95773 145.455 4.56379 145.776 4.9916C146.917 6.56023 151.195 2.67431 153.869 6.41762C155.366 8.55666 154.582 10.9809 152.55 12.4069C150.589 13.7973 148.878 14.0112 147.095 13.619L147.773 10.3748Z" fill="#E1000F"/>
<path d="M71.4796 85.2401C72.5848 85.5966 73.7613 85.454 74.5456 84.9192C75.1516 84.4558 75.3656 83.921 74.9021 83.3149C73.7256 81.675 69.4476 85.5966 66.8451 81.9246C65.5616 80.142 65.9894 77.6108 68.1641 76.0779C69.8397 74.8657 71.6935 74.6518 73.4404 75.044L72.7631 78.2526C71.6222 77.9674 70.5527 77.9317 69.8397 78.4308C69.3049 78.823 69.1623 79.429 69.4832 79.8568C70.624 81.4255 74.9021 77.5395 77.5759 81.2829C79.0732 83.4219 78.2889 85.8461 76.2568 87.2722C74.296 88.6625 72.5848 88.8764 70.8023 88.4843L71.4796 85.2401Z" fill="#000091"/>
<path d="M75.1507 78.4661L73.2969 72.8333L76.0063 70.9082L77.361 76.8619L75.1507 78.4661Z" fill="#000091"/>
<path d="M76.541 70.5169L83.1007 65.7754L84.705 68.0214L80.8547 70.8021L82.1738 72.656L85.418 70.3387L87.0223 72.549L83.7781 74.902L85.2754 76.9697L89.1257 74.1889L90.73 76.3993L84.1702 81.1408L76.541 70.5169Z" fill="#000091"/>
<path d="M84.7051 64.634L88.1275 62.1741L96.6837 66.0601L91.9422 59.429L94.6516 57.5039L102.281 68.1278L98.8227 70.5877L90.2666 66.7018L95.0438 73.3328L92.3343 75.2579L84.7051 64.634Z" fill="#000091"/>
<path d="M109.126 58.8594L108.127 57.4691L105.668 59.2159L104.028 56.9343L109.161 53.2266L112.548 57.9325C112.477 59.9646 111.443 61.9967 109.446 63.4227C105.988 65.9183 101.746 65.027 99.5712 61.9967C97.3966 58.9664 97.86 54.724 101.247 52.2997C103.172 50.9093 105.382 50.6241 107.307 51.1945L106.345 54.3675C105.311 54.0109 104.135 54.0466 103.101 54.8309C101.389 56.043 101.14 58.2177 102.388 60.0003C103.671 61.7828 105.881 62.1393 107.664 60.8915C108.413 60.3211 108.912 59.6081 109.126 58.8594Z" fill="#000091"/>
<path d="M110.125 46.3808L113.654 43.8496L125.134 51.6927L122.282 53.7605L119.608 51.871L115.829 54.5805L116.756 57.7177L113.904 59.7854L110.125 46.3808ZM117.184 50.1598L113.833 47.8068L114.973 51.7284L117.184 50.1598Z" fill="#000091"/>
<path d="M130.374 43.5645L129.375 42.1741L126.916 43.921L125.276 41.6394L130.409 37.9317L133.796 42.6376C133.76 44.6697 132.691 46.7018 130.695 48.1278C127.236 50.6233 122.994 49.7321 120.819 46.7018C118.645 43.6715 119.108 39.429 122.495 37.0048C124.42 35.6144 126.63 35.3292 128.555 35.8996L127.593 39.0725C126.559 38.716 125.383 38.7517 124.349 39.536C122.637 40.7481 122.388 42.9228 123.636 44.7053C124.919 46.4879 127.129 46.8444 128.912 45.5966C129.696 45.0618 130.16 44.3488 130.374 43.5645Z" fill="#000091"/>
<path d="M128.912 32.8699L135.472 28.1641L137.076 30.4101L133.226 33.1908L134.545 35.0446L137.825 32.7273L139.393 34.9377L136.149 37.255L137.647 39.3227L141.497 36.5776L143.101 38.7879L136.541 43.4938L128.912 32.8699Z" fill="#000091"/>
<path d="M137.076 27.0227L140.499 24.5628L149.09 28.4487L144.313 21.8177L147.023 19.8926L154.652 30.5165L151.229 32.9764L142.638 29.0904L147.415 35.7215L144.705 37.6466L137.076 27.0227Z" fill="#000091"/>
<path d="M148.021 19.1803L156.898 12.7988L158.645 15.2231L155.544 17.4691L161.426 25.6331L158.717 27.5938L152.87 19.3942L149.768 21.6045L148.021 19.1803Z" fill="#000091"/>
<path d="M28.664 43.4929L24.4929 51.9421C23.9938 52.9403 23.6729 53.9742 23.459 55.0437L21.0348 67.8779C20.1435 72.5125 21.7121 77.2897 25.1702 80.5339L30.8387 85.8102C32.0151 86.9153 33.9403 85.9171 33.7264 84.3128L30.7674 60.6052C30.6961 60.1774 30.6604 59.7496 30.6604 59.3218L30.0544 43.7781C30.0544 42.9938 29.0205 42.7799 28.664 43.4929Z" fill="#E5E5E5"/>
<path d="M35.329 52.3351C34.7942 51.5508 33.5821 51.9786 33.6534 52.9412L34.7942 64.492C34.9368 65.8467 35.222 67.1658 35.7211 68.4136L41.4609 83.3868C43.5286 88.8057 48.2702 92.7986 53.9743 93.9037L63.3147 95.7576C65.2755 96.1497 66.6302 93.8681 65.3825 92.3351L35.329 52.3351Z" fill="#000091"/>
<path d="M7.27273 26.8797L3.92157 29.803C1.42602 32.0133 0 35.1862 0 38.5374V39.0009L6.31016 37.0757C7.80749 36.6123 9.44742 37.0044 10.5526 38.1453L11.0517 38.6444C12.2282 39.8208 12.5847 41.5321 12.0499 43.065L10.0535 48.6265C8.5918 52.7264 8.69875 57.2183 10.41 61.2112L12.7273 66.6301C13.2977 67.9848 15.2941 67.8422 15.6506 66.4162L18.8948 54.188C19.5009 51.942 20.6061 49.8387 22.1034 48.0205L27.5223 41.5677C29.2692 39.4643 29.7683 36.5766 28.7701 34.0098L26.738 28.7691C26.3102 27.6996 27.2014 26.5944 28.3422 26.7371L29.0553 26.844C34.5098 27.557 39.6078 29.8387 43.779 33.4037L47.7718 36.8262C48.2353 37.254 48.984 36.8618 48.9127 36.2201L48.5205 33.1185C47.8431 27.4144 44.5633 22.3164 39.6078 19.3574L36.0071 17.1827L44.2781 14.6158C45.0267 14.4019 44.9911 13.3324 44.2424 13.1185L36.0428 10.7656C33.1907 9.94561 30.0891 10.5517 27.7718 12.4055L27.451 12.6551C26.7736 13.1898 25.8824 12.4412 26.2745 11.6568L30.9091 2.85114C31.2656 2.24508 30.6595 1.53206 29.9822 1.78162L14.2602 7.69962C10.41 9.12565 7.34403 12.1203 5.81105 15.9706C4.81283 18.5018 5.24064 21.3538 6.95187 23.4572L7.45098 24.0633C8.16399 24.8832 8.09269 26.131 7.27273 26.8797Z" fill="#E1000F"/>
</g>
<defs>
<clipPath id="clip0_10128_40969">
<rect width="199.857" height="120" fill="white"/>
</clipPath>
</defs>
</svg>
