<?xml version="1.0" standalone="no"?>
<!DOCTYPE svg PUBLIC "-//W3C//DTD SVG 20010904//EN"
 "http://www.w3.org/TR/2001/REC-SVG-20010904/DTD/svg10.dtd">
<svg version="1.0" xmlns="http://www.w3.org/2000/svg"
 width="180.000000pt" height="180.000000pt" viewBox="0 0 180.000000 180.000000"
 preserveAspectRatio="xMidYMid meet">
<metadata>
Created by potrace 1.14, written by Peter Selinger 2001-2017
</metadata>
<g transform="translate(0.000000,180.000000) scale(0.100000,-0.100000)"
fill="#000000" stroke="none">
<path d="M718 1526 c-141 -55 -175 -79 -205 -145 -17 -37 -16 -61 7 -103 23
-44 19 -58 -25 -92 -37 -29 -75 -98 -68 -125 4 -17 8 -18 50 -5 63 19 82 18
104 -8 23 -29 23 -42 -1 -113 -27 -79 -30 -140 -9 -200 36 -107 56 -128 79
-85 6 11 8 20 5 20 -3 0 -1 8 4 18 6 11 12 30 15 43 20 95 48 159 88 200 75
78 99 144 72 198 -7 14 -16 38 -19 52 -10 40 13 43 110 15 38 -10 88 -40 137
-80 31 -25 60 -46 63 -46 11 0 -2 84 -19 125 -25 59 -62 102 -113 132 l-47 27
62 20 c34 11 62 26 62 33 0 7 -3 12 -7 11 -5 -1 -35 6 -68 16 -72 22 -105 22
-146 2 -17 -9 -35 -14 -39 -11 -4 3 7 33 26 67 33 62 41 88 27 88 -5 -1 -70
-25 -145 -54z"/>
<path d="M804 908 c-31 -64 -45 -113 -71 -258 -10 -55 -4 -118 14 -153 21 -42
124 -138 143 -134 17 3 19 56 7 147 -5 30 -10 73 -12 95 -2 22 -6 56 -10 75
-5 33 -13 178 -14 263 -1 20 -5 37 -11 37 -5 0 -26 -33 -46 -72z"/>
<path d="M915 850 c-6 -9 -3 -50 10 -160 10 -75 105 -315 143 -361 33 -38 95
-74 147 -83 17 -3 39 -7 50 -10 92 -17 94 -17 104 2 9 16 -1 34 -56 108 -37
49 -70 91 -75 92 -4 2 -8 8 -8 13 0 7 -64 95 -123 169 -7 8 -46 60 -87 115
-88 119 -97 128 -105 115z"/>
</g>
</svg>
